<?xml version="1.0" encoding="UTF-8" standalone="no"?>
<!-- Created with Inkscape (http://www.inkscape.org/) -->

<svg
   width="52.916668cm"
   height="42.896267cm"
   viewBox="0 0 529.16667 428.96267"
   version="1.1"
   id="svg5"
   inkscape:version="1.2 (dc2aedaf03, 2022-05-15)"
   sodipodi:docname="RED Vertical.svg"
   xml:space="preserve"
   xmlns:inkscape="http://www.inkscape.org/namespaces/inkscape"
   xmlns:sodipodi="http://sodipodi.sourceforge.net/DTD/sodipodi-0.dtd"
   xmlns="http://www.w3.org/2000/svg"
   xmlns:svg="http://www.w3.org/2000/svg"><sodipodi:namedview
     id="namedview7"
     pagecolor="#ffffff"
     bordercolor="#666666"
     borderopacity="1.0"
     inkscape:pageshadow="2"
     inkscape:pageopacity="0.0"
     inkscape:pagecheckerboard="false"
     inkscape:blackoutopacity="0.0"
     inkscape:document-units="cm"
     showgrid="false"
     borderlayer="true"
     inkscape:showpageshadow="false"
     showguides="true"
     inkscape:zoom="0.14221458"
     inkscape:cx="435.96092"
     inkscape:cy="787.54231"
     inkscape:window-width="1366"
     inkscape:window-height="705"
     inkscape:window-x="-8"
     inkscape:window-y="-8"
     inkscape:window-maximized="1"
     inkscape:current-layer="layer1"
     inkscape:deskcolor="#d1d1d1" /><defs
     id="defs2" /><g
     inkscape:label="Capa 1"
     inkscape:groupmode="layer"
     id="layer1"
     transform="translate(-396.83386,-208.98816)"><g
       id="g1666"
       transform="matrix(3.4348075,0,0,3.4348075,1105.4575,-2053.1766)"><path
         fill-rule="nonzero"
         fill="#de1731"
         fill-opacity="1"
         d="m -167.09331,708.91961 c -0.30853,5.1252 -4.51949,9.21368 -9.69126,9.33016 h -4.74661 c -1.86953,0 -3.38961,-1.52588 -3.38961,-3.3954 v -13.07496 c 0,-1.87548 1.52008,-3.39553 3.39544,-3.39553 h 4.25737 c 5.80661,0 10.5241,4.75244 10.17467,10.54156 m 11.45009,33.35444 c -2.29469,-0.80364 -2.96444,-3.16249 -4.15255,-8.0372 -0.5591,-2.28311 -1.19394,-4.87471 -2.3471,-7.2975 -0.17455,-0.35544 -0.36093,-0.71058 -0.5591,-1.05426 -0.66396,-1.13566 -0.55332,-2.57414 0.36093,-3.52359 3.57595,-3.73322 5.7425,-8.82917 5.64348,-14.41446 -0.19822,-10.97839 -9.66793,-19.94741 -20.64629,-19.94741 h -12.74889 c -2.87709,0 -5.20669,2.32964 -5.20669,5.20673 v 40.35495 c 0,2.80718 2.15489,5.22419 4.95628,5.35224 2.97027,0.12806 5.42219,-2.24224 5.42219,-5.18927 v -1.69481 c 0,-1.87531 1.52009,-3.39536 3.39544,-3.39536 h 5.59691 c 1.87535,0 3.61094,1.09484 4.41462,2.78394 0.69308,1.4501 1.22307,3.30217 1.63074,5.29396 1.46185,7.15199 6.37155,15.66089 12.5276,15.66089 2.14327,0 4.15256,-1.3395 4.89804,-3.48272 0.94932,-2.70237 -0.47758,-5.66685 -3.18578,-6.61034"
         id="path1576"
         style="stroke-width:1.49096" /><path
         fill-rule="nonzero"
         fill="#de1731"
         fill-opacity="1"
         d="m -120.28532,714.87765 c 0,1.87532 -1.52009,3.39549 -3.39545,3.39549 h -13.0925 c -1.87535,0 -3.38957,-1.52017 -3.38957,-3.39549 v -6.31914 c 0,-5.56187 4.54857,-10.25616 10.10473,-10.1688 5.40473,0.0926 9.77279,4.51953 9.77279,9.94172 z m -10.33189,-26.86057 c -11.12395,0.20963 -19.92997,9.52817 -19.92997,20.65803 v 23.37186 c 0,12.02665 7.99646,20.13971 19.92997,20.3143 0.0583,0 0.39009,0 0.39009,0 8.96323,-0.0761 15.94629,-4.71157 18.76514,-12.45174 0.95511,-2.63246 -0.18047,-5.63777 -2.74899,-6.73857 -2.79551,-1.1996 -5.97546,0.23287 -6.95973,3.05768 -1.32209,3.79154 -4.40884,5.72513 -9.1729,5.75421 -8.54389,-0.0583 -9.81936,-6.23758 -9.81936,-9.93588 0,-1.87536 1.51421,-3.39541 3.38957,-3.39541 h 15.60852 c 6.22008,0 11.25788,-5.04359 11.25788,-11.25792 v -9.06221 c 0,-11.33366 -9.33016,-20.52977 -20.71035,-20.31435"
         id="path1578"
         style="stroke-width:1.49096" /><path
         fill-rule="nonzero"
         fill="#de1731"
         fill-opacity="1"
         d="m -184.68784,746.99157 c 0,2.98194 -2.42279,5.40474 -5.40473,5.40474 -2.98773,0 -5.40469,-2.4228 -5.40469,-5.40474 0,-2.98773 2.41696,-5.40473 5.40469,-5.40473 2.98194,0 5.40473,2.417 5.40473,5.40473"
         id="path1580"
         style="stroke-width:1.49096" /><path
         fill-rule="nonzero"
         fill="#de1731"
         fill-opacity="1"
         d="m -73.436549,732.07617 c 0,1.7006 -0.419254,3.32546 -1.240517,4.81639 -1.298798,2.35306 -3.53521,4.08852 -6.126932,4.78168 -6.569556,1.75305 -12.510106,-3.50034 -12.510106,-9.81949 v -23.3544 c 0,-5.26501 4.001165,-9.80186 9.254469,-10.15717 4.280695,-0.29119 8.200249,2.1491 9.848481,6.05124 0.500864,1.18215 0.76294,2.44604 0.774605,3.75063 z m 13.005137,13.90784 -2.387884,-11.41527 c -0.174548,-0.81526 -0.238789,-1.6481 -0.232872,-2.48095 v -0.0169 l -0.0042,-57.32039 c 0,-2.79556 -2.143264,-5.20094 -4.938822,-5.33496 -2.981897,-0.14031 -5.439643,2.23642 -5.439643,5.18345 v 10.86195 c 0,2.26554 -2.172383,3.87294 -4.350599,3.24968 -2.102479,-0.5998 -4.333102,-0.86192 -6.616131,-0.75127 -10.867706,0.54165 -19.289287,9.75537 -19.289287,20.64058 v 23.12731 c 0,11.18803 8.899158,20.5356 20.087179,20.658 3.773999,0.0461 7.37328,-0.94928 10.48332,-2.76649 1.158991,-0.67553 2.667415,-0.43683 3.465307,0.64651 1.193942,1.62482 3.278967,2.47528 5.387279,1.9685 2.690702,-0.64067 4.397173,-3.54683 3.83807,-6.25503"
         id="path1582"
         style="stroke-width:1.49096" /></g><g
       id="g1818"
       style="font-variation-settings:normal;vector-effect:none;fill:#de1731;fill-opacity:1;stroke-width:2.98279;stroke-linecap:butt;stroke-linejoin:miter;stroke-miterlimit:4;stroke-dasharray:none;stroke-dashoffset:0;stroke-opacity:1;-inkscape-stroke:none;stop-color:#000000"
       transform="matrix(1.7190363,0,0,1.7190363,585.83261,-450.2757)"><path
         fill-rule="nonzero"
         fill="#de1731"
         fill-opacity="1"
         d="m -82.446527,604.38727 -4.484631,-8.34593 v 10.55625 c 0,0.38409 -0.32348,0.70754 -0.707572,0.70754 -0.387491,0 -0.707572,-0.32345 -0.707572,-0.70754 v -13.36966 c 0,-0.38409 0.320081,-0.70755 0.707572,-0.70755 0.323455,0 0.535734,0.19536 0.643536,0.40764 l 5.192203,9.72067 5.212423,-9.72067 c 0.08753,-0.14817 0.25942,-0.40764 0.646911,-0.40764 0.384092,0 0.707572,0.32346 0.707572,0.70755 v 13.36966 c 0,0.38409 -0.32348,0.70754 -0.707572,0.70754 -0.387491,0 -0.710947,-0.32345 -0.710947,-0.70754 v -10.55625 l -4.504851,8.34593 c -0.151593,0.27963 -0.384092,0.40766 -0.643536,0.40766 -0.215653,0 -0.491919,-0.10783 -0.643536,-0.40766"
         id="path1584"
         style="font-variation-settings:normal;vector-effect:none;fill:#de1731;fill-opacity:1;stroke-width:2.98279;stroke-linecap:butt;stroke-linejoin:miter;stroke-miterlimit:4;stroke-dasharray:none;stroke-dashoffset:0;stroke-opacity:1;-inkscape-stroke:none;stop-color:#000000;stop-opacity:1" /><path
         fill-rule="nonzero"
         fill="#de1731"
         fill-opacity="1"
         d="m -66.765516,598.3359 c -1.866621,0 -2.897649,1.20284 -3.025671,3.10988 h 5.771727 c 0,-1.54312 -0.535734,-3.10988 -2.746056,-3.10988 m 0,-1.24328 c 3.433383,0 4.097165,2.72241 4.097165,4.18134 0,0.62337 0,1.37473 -0.855815,1.37473 h -6.267021 c 0,2.12605 1.223061,3.49735 3.241324,3.49735 1.243282,0 1.974449,-0.47165 2.574194,-0.9232 0.128121,-0.0846 0.21223,-0.12788 0.387467,-0.12788 0.3437,0 0.619966,0.27964 0.619966,0.62337 0,0.23594 -0.107827,0.36382 -0.235947,0.49191 -0.320081,0.32346 -1.435341,1.19947 -3.345777,1.19947 -2.853858,0 -4.636248,-1.56338 -4.636248,-5.16861 0,-3.30533 1.630772,-5.14836 4.420595,-5.14836"
         id="path1586"
         style="font-variation-settings:normal;vector-effect:none;fill:#de1731;fill-opacity:1;stroke-width:2.98279;stroke-linecap:butt;stroke-linejoin:miter;stroke-miterlimit:4;stroke-dasharray:none;stroke-dashoffset:0;stroke-opacity:1;-inkscape-stroke:none;stop-color:#000000;stop-opacity:1" /><path
         fill-rule="nonzero"
         fill="#de1731"
         fill-opacity="1"
         d="m -58.41957,595.13832 c 0,-0.36383 0.320081,-0.68728 0.687327,-0.68728 0.384117,0 0.684002,0.32345 0.684002,0.68728 v 2.25413 h 1.394923 c 0.363872,0 0.643537,0.27965 0.643537,0.64354 0,0.36392 -0.279665,0.64356 -0.643537,0.64356 h -1.394923 v 5.92 c 0,0.9232 0.515514,1.41512 1.246656,1.41512 0.363896,0 0.663756,0.27964 0.663756,0.64356 0,0.36726 -0.29986,0.6469 -0.663756,0.6469 -1.694784,0 -2.617985,-1.13882 -2.617985,-2.70558 v -5.92 h -0.838993 c -0.363896,0 -0.643536,-0.27964 -0.643536,-0.64356 0,-0.36389 0.27964,-0.64354 0.643536,-0.64354 h 0.838993 z m 0,0"
         id="path1588"
         style="font-variation-settings:normal;vector-effect:none;fill:#de1731;fill-opacity:1;stroke-width:2.98279;stroke-linecap:butt;stroke-linejoin:miter;stroke-miterlimit:4;stroke-dasharray:none;stroke-dashoffset:0;stroke-opacity:1;-inkscape-stroke:none;stop-color:#000000;stop-opacity:1" /><path
         fill-rule="nonzero"
         fill="#de1731"
         fill-opacity="1"
         d="m -50.009637,598.85136 c 0.427907,-0.98718 1.499376,-1.71837 2.981881,-1.71837 0.363896,0 0.663781,0.2999 0.663781,0.66717 0,0.36385 -0.299885,0.66376 -0.663781,0.66376 -1.974449,0 -2.981881,1.37465 -2.981881,3.34913 v 4.80471 c 0,0.38747 -0.303259,0.68737 -0.687351,0.68737 -0.387491,0 -0.687352,-0.2999 -0.687352,-0.68737 v -8.70977 c 0,-0.38754 0.299861,-0.68738 0.687352,-0.68738 0.384092,0 0.687351,0.29984 0.687351,0.68738 z m 0,0"
         id="path1590"
         style="font-variation-settings:normal;vector-effect:none;fill:#de1731;fill-opacity:1;stroke-width:2.98279;stroke-linecap:butt;stroke-linejoin:miter;stroke-miterlimit:4;stroke-dasharray:none;stroke-dashoffset:0;stroke-opacity:1;-inkscape-stroke:none;stop-color:#000000;stop-opacity:1" /><path
         fill-rule="nonzero"
         fill="#de1731"
         fill-opacity="1"
         d="m -36.299675,602.24098 c 0,-2.70224 -1.138854,-3.90508 -3.113302,-3.90508 -1.974449,0 -3.109928,1.20284 -3.109928,3.90508 0,2.74603 1.135479,3.92533 3.109928,3.92533 1.974448,0 3.113302,-1.1793 3.113302,-3.92533 m 1.394899,0 c 0,3.51759 -1.718354,5.17198 -4.508201,5.17198 -2.766252,0 -4.504852,-1.65439 -4.504852,-5.17198 0,-3.51762 1.7386,-5.14836 4.504852,-5.14836 2.789847,0 4.508201,1.63074 4.508201,5.14836"
         id="path1592"
         style="font-variation-settings:normal;vector-effect:none;fill:#de1731;fill-opacity:1;stroke-width:2.98279;stroke-linecap:butt;stroke-linejoin:miter;stroke-miterlimit:4;stroke-dasharray:none;stroke-dashoffset:0;stroke-opacity:1;-inkscape-stroke:none;stop-color:#000000;stop-opacity:1" /><path
         fill-rule="nonzero"
         fill="#de1731"
         fill-opacity="1"
         d="m -26.88231,606.16631 c 1.974448,0 3.089708,-1.24331 3.089708,-3.92533 0,-2.68204 -1.159051,-3.90508 -3.133499,-3.90508 -1.590356,0 -2.921243,1.11521 -2.921243,3.90508 0,2.7662 1.290471,3.92533 2.965034,3.92533 m -2.921244,-8.25832 v 0.6873 c 0.411062,-0.73111 1.48253,-1.50267 2.921244,-1.50267 2.786473,0 4.481257,1.63074 4.481257,5.14836 0,3.51759 -1.694784,5.16861 -4.481257,5.16861 -1.438714,0 -2.469741,-0.76819 -2.921244,-1.49938 v 4.84853 c 0,0.3639 -0.320081,0.68737 -0.683977,0.68737 -0.367246,0 -0.687351,-0.32347 -0.687351,-0.68737 v -12.85075 c 0,-0.38754 0.320105,-0.68738 0.687351,-0.68738 0.363896,0 0.683977,0.29984 0.683977,0.68738"
         id="path1594"
         style="font-variation-settings:normal;vector-effect:none;fill:#de1731;fill-opacity:1;stroke-width:2.98279;stroke-linecap:butt;stroke-linejoin:miter;stroke-miterlimit:4;stroke-dasharray:none;stroke-dashoffset:0;stroke-opacity:1;-inkscape-stroke:none;stop-color:#000000;stop-opacity:1" /><path
         fill-rule="nonzero"
         fill="#de1731"
         fill-opacity="1"
         d="m -11.696568,602.24098 c 0,-2.70224 -1.135477,-3.90508 -3.109927,-3.90508 -1.974448,0 -3.113302,1.20284 -3.113302,3.90508 0,2.74603 1.138854,3.92533 3.113302,3.92533 1.97445,0 3.109927,-1.1793 3.109927,-3.92533 m 1.394922,0 c 0,3.51759 -1.715003,5.17198 -4.504849,5.17198 -2.766252,0 -4.504851,-1.65439 -4.504851,-5.17198 0,-3.51762 1.738599,-5.14836 4.504851,-5.14836 2.789846,0 4.504849,1.63074 4.504849,5.14836"
         id="path1596"
         style="font-variation-settings:normal;vector-effect:none;fill:#de1731;fill-opacity:1;stroke-width:2.98279;stroke-linecap:butt;stroke-linejoin:miter;stroke-miterlimit:4;stroke-dasharray:none;stroke-dashoffset:0;stroke-opacity:1;-inkscape-stroke:none;stop-color:#000000;stop-opacity:1" /><path
         fill-rule="nonzero"
         fill="#de1731"
         fill-opacity="1"
         d="m -5.3015054,593.22455 v 11.57038 c 0,0.85581 0.276292,1.22308 0.8558122,1.22308 0.3436786,0 0.6435571,0.2763 0.6435571,0.64357 0,0.36391 -0.2998785,0.64355 -0.6435571,0.64355 -1.435344,0 -2.2305094,-0.85919 -2.2305094,-2.5102 v -11.57038 c 0,-0.36389 0.3200864,-0.684 0.6873457,-0.684 0.384106,0 0.6873515,0.32011 0.6873515,0.684"
         id="path1598"
         style="font-variation-settings:normal;vector-effect:none;fill:#de1731;fill-opacity:1;stroke-width:2.98279;stroke-linecap:butt;stroke-linejoin:miter;stroke-miterlimit:4;stroke-dasharray:none;stroke-dashoffset:0;stroke-opacity:1;-inkscape-stroke:none;stop-color:#000000;stop-opacity:1" /><path
         fill-rule="nonzero"
         fill="#de1731"
         fill-opacity="1"
         d="m 0.96215136,606.61776 c 0,0.38747 -0.29987849,0.68737 -0.68735726,0.68737 -0.38747877,0 -0.6873457,-0.2999 -0.6873457,-0.68737 v -8.70977 c 0,-0.38754 0.29986693,-0.68738 0.6873457,-0.68738 0.38747877,0 0.68735726,0.29984 0.68735726,0.68738 z m -1.50273635,-12.23081 c 0,-0.61992 0.29986692,-0.85584 0.81537909,-0.85584 0.51551795,0 0.8153907,0.23595 0.8153907,0.85584 0,0.51554 -0.29987275,0.81538 -0.8153907,0.81538 -0.51551217,0 -0.81537909,-0.29984 -0.81537909,-0.81538"
         id="path1600"
         style="font-variation-settings:normal;vector-effect:none;fill:#de1731;fill-opacity:1;stroke-width:2.98279;stroke-linecap:butt;stroke-linejoin:miter;stroke-miterlimit:4;stroke-dasharray:none;stroke-dashoffset:0;stroke-opacity:1;-inkscape-stroke:none;stop-color:#000000;stop-opacity:1" /><path
         fill-rule="nonzero"
         fill="#de1731"
         fill-opacity="1"
         d="m 5.8746858,595.13832 c 0,-0.36383 0.3200864,-0.68728 0.6873515,-0.68728 0.3841118,0 0.6839787,0.32345 0.6839787,0.68728 v 2.25413 h 1.3949166 c 0.3638923,0 0.6435514,0.27965 0.6435514,0.64354 0,0.36392 -0.2796591,0.64356 -0.6435514,0.64356 H 7.246016 v 5.92 c 0,0.9232 0.515518,1.41512 1.2466638,1.41512 0.3638981,0 0.6637766,0.27964 0.6637766,0.64356 0,0.36726 -0.2998785,0.6469 -0.6637766,0.6469 -1.6947893,0 -2.617994,-1.13882 -2.617994,-2.70558 v -5.92 H 5.0357145 c -0.3638923,0 -0.6435456,-0.27964 -0.6435456,-0.64356 0,-0.36389 0.2796533,-0.64354 0.6435456,-0.64354 h 0.8389713 z m 0,0"
         id="path1602"
         style="font-variation-settings:normal;vector-effect:none;fill:#de1731;fill-opacity:1;stroke-width:2.98279;stroke-linecap:butt;stroke-linejoin:miter;stroke-miterlimit:4;stroke-dasharray:none;stroke-dashoffset:0;stroke-opacity:1;-inkscape-stroke:none;stop-color:#000000;stop-opacity:1" /><path
         fill-rule="nonzero"
         fill="#de1731"
         fill-opacity="1"
         d="m 19.025325,603.42025 v -0.89963 h -3.025692 c -1.394916,0 -2.35856,0.57955 -2.35856,1.82283 0,1.11529 0.771591,1.82286 2.446161,1.82286 1.499369,0 2.938091,-0.92321 2.938091,-2.74606 m -5.020354,-3.94887 c -0.215633,0.23913 -0.363898,0.29984 -0.559318,0.29984 -0.343678,0 -0.619965,-0.2763 -0.619965,-0.61992 0,-0.14842 0.04044,-0.2561 0.104453,-0.36392 0.603112,-0.94347 1.76217,-1.69476 3.561418,-1.69476 2.489961,0 3.864664,1.45893 3.864664,3.64561 v 5.8998 c 0,0.3672 -0.30324,0.6671 -0.667138,0.6671 -0.363887,0 -0.663765,-0.2999 -0.663765,-0.6671 v -0.77164 c -0.53572,1.01084 -1.779023,1.54657 -3.069487,1.54657 -2.274327,0 -3.709676,-1.09501 -3.709676,-3.06951 0,-1.88684 1.435349,-3.02567 3.753476,-3.02567 h 3.025687 v -0.57955 c 0,-1.45893 -0.967005,-2.35859 -2.533761,-2.35859 -1.135471,0 -1.822829,0.34372 -2.486594,1.09174"
         id="path1604"
         style="font-variation-settings:normal;vector-effect:none;fill:#de1731;fill-opacity:1;stroke-width:2.98279;stroke-linecap:butt;stroke-linejoin:miter;stroke-miterlimit:4;stroke-dasharray:none;stroke-dashoffset:0;stroke-opacity:1;-inkscape-stroke:none;stop-color:#000000;stop-opacity:1" /><path
         fill-rule="nonzero"
         fill="#de1731"
         fill-opacity="1"
         d="m 32.691477,600.88985 v 5.72791 c 0,0.38747 -0.299867,0.68737 -0.687345,0.68737 -0.387479,0 -0.687352,-0.2999 -0.687352,-0.68737 v -5.44825 c 0,-1.69813 -0.491931,-2.85388 -2.574194,-2.85388 -2.122707,0 -2.853858,1.28712 -2.853858,3.00215 v 5.29998 c 0,0.38747 -0.299873,0.68737 -0.687352,0.68737 -0.384106,0 -0.683978,-0.2999 -0.683978,-0.68737 v -8.70977 c 0,-0.38754 0.299872,-0.68738 0.683978,-0.68738 0.387479,0 0.687352,0.29984 0.687352,0.68738 v 0.6873 c 0.407692,-0.81875 1.458936,-1.50267 2.853858,-1.50267 3.305346,0 3.948891,1.97102 3.948891,3.79723"
         id="path1606"
         style="font-variation-settings:normal;vector-effect:none;fill:#de1731;fill-opacity:1;stroke-width:2.98279;stroke-linecap:butt;stroke-linejoin:miter;stroke-miterlimit:4;stroke-dasharray:none;stroke-dashoffset:0;stroke-opacity:1;-inkscape-stroke:none;stop-color:#000000;stop-opacity:1" /><path
         fill-rule="nonzero"
         fill="#de1731"
         fill-opacity="1"
         d="m 42.964683,603.42025 v -0.89963 h -3.022325 c -1.394922,0 -2.361927,0.57955 -2.361927,1.82283 0,1.11529 0.771585,1.82286 2.446166,1.82286 1.502737,0 2.938086,-0.92321 2.938086,-2.74606 m -5.020354,-3.94887 c -0.215628,0.23913 -0.363898,0.29984 -0.555951,0.29984 -0.343673,0 -0.623332,-0.2763 -0.623332,-0.61992 0,-0.14842 0.0438,-0.2561 0.107826,-0.36392 0.599745,-0.94347 1.758809,-1.69476 3.561418,-1.69476 2.489966,0 3.861302,1.45893 3.861302,3.64561 v 5.8998 c 0,0.3672 -0.299879,0.6671 -0.663765,0.6671 -0.367271,0 -0.667138,-0.2999 -0.667138,-0.6671 v -0.77164 c -0.535731,1.01084 -1.779022,1.54657 -3.066125,1.54657 -2.274327,0 -3.713044,-1.09501 -3.713044,-3.06951 0,-1.88684 1.438717,-3.02567 3.756844,-3.02567 h 3.022325 v -0.57955 c 0,-1.45893 -0.963643,-2.35859 -2.530399,-2.35859 -1.135472,0 -1.822829,0.34372 -2.489955,1.09174"
         id="path1608"
         style="font-variation-settings:normal;vector-effect:none;fill:#de1731;fill-opacity:1;stroke-width:2.98279;stroke-linecap:butt;stroke-linejoin:miter;stroke-miterlimit:4;stroke-dasharray:none;stroke-dashoffset:0;stroke-opacity:1;-inkscape-stroke:none;stop-color:#000000;stop-opacity:1" /><path
         fill-rule="nonzero"
         fill="#de1731"
         fill-opacity="1"
         d="m 61.87957,600.33116 c 0,0 -0.815398,-1.88684 -2.833638,-1.88684 -1.954227,0 -3.025695,1.26355 -3.025695,3.90513 0,2.68195 1.051248,3.92525 3.025695,3.92525 1.650994,0 2.833638,-0.94337 2.833638,-2.98185 z m 0,-1.73857 v -5.27981 c 0,-0.38747 0.299861,-0.68737 0.687352,-0.68737 0.384092,0 0.683977,0.2999 0.683977,0.68737 v 9.98007 c 0,2.83031 -1.758795,4.22513 -4.204967,4.22513 -2.766252,0 -4.397024,-1.65092 -4.397024,-5.16853 0,-3.52103 1.543166,-5.15179 4.309419,-5.15179 1.374702,0 2.42595,0.70755 2.921243,1.39493"
         id="path1610"
         style="font-variation-settings:normal;vector-effect:none;fill:#de1731;fill-opacity:1;stroke-width:2.98279;stroke-linecap:butt;stroke-linejoin:miter;stroke-miterlimit:4;stroke-dasharray:none;stroke-dashoffset:0;stroke-opacity:1;-inkscape-stroke:none;stop-color:#000000;stop-opacity:1" /><path
         fill-rule="nonzero"
         fill="#de1731"
         fill-opacity="1"
         d="m 71.401412,598.44432 c -1.866646,0 -2.894299,1.19947 -3.022346,3.10996 h 5.771752 c 0,-1.54657 -0.535734,-3.10996 -2.749406,-3.10996 m 0,-1.24666 c 3.433383,0 4.09714,2.72586 4.09714,4.18478 0,0.62329 0,1.37468 -0.855815,1.37468 h -6.263671 c 0,2.12266 1.219711,3.49739 3.237975,3.49739 1.243282,0 1.974448,-0.47173 2.574194,-0.92318 0.12812,-0.0875 0.215653,-0.12812 0.387466,-0.12812 0.3437,0 0.62334,0.27636 0.62334,0.61999 0,0.23595 -0.107826,0.36392 -0.239125,0.49529 -0.320081,0.32011 -1.43534,1.19947 -3.345777,1.19947 -2.853858,0 -4.632874,-1.56674 -4.632874,-5.17198 0,-3.30197 1.630772,-5.14834 4.417245,-5.14834"
         id="path1612"
         style="font-variation-settings:normal;vector-effect:none;fill:#de1731;fill-opacity:1;stroke-width:2.98279;stroke-linecap:butt;stroke-linejoin:miter;stroke-miterlimit:4;stroke-dasharray:none;stroke-dashoffset:0;stroke-opacity:1;-inkscape-stroke:none;stop-color:#000000;stop-opacity:1" /><path
         fill-rule="nonzero"
         fill="#de1731"
         fill-opacity="1"
         d="m 91.888622,604.38728 -4.484631,-8.34594 v 10.55624 c 0,0.38747 -0.323479,0.70757 -0.707572,0.70757 -0.387491,0 -0.710946,-0.3201 -0.710946,-0.70757 V 593.2313 c 0,-0.38747 0.323455,-0.70755 0.710946,-0.70755 0.320081,0 0.535735,0.19218 0.643536,0.40773 l 5.192203,9.71723 5.212403,-9.71723 c 0.0875,-0.15159 0.25944,-0.40773 0.64356,-0.40773 0.38746,0 0.71094,0.32008 0.71094,0.70755 v 13.36628 c 0,0.38747 -0.32348,0.70757 -0.71094,0.70757 -0.38412,0 -0.70758,-0.3201 -0.70758,-0.70757 v -10.55624 l -4.504822,8.34594 c -0.151593,0.27964 -0.387491,0.40774 -0.643561,0.40774 -0.215653,0 -0.495293,-0.1044 -0.643536,-0.40774"
         id="path1614"
         style="font-variation-settings:normal;vector-effect:none;fill:#de1731;fill-opacity:1;stroke-width:2.98279;stroke-linecap:butt;stroke-linejoin:miter;stroke-miterlimit:4;stroke-dasharray:none;stroke-dashoffset:0;stroke-opacity:1;-inkscape-stroke:none;stop-color:#000000;stop-opacity:1" /><path
         fill-rule="nonzero"
         fill="#de1731"
         fill-opacity="1"
         d="m 110.73828,602.24442 c 0,-2.70566 -1.13547,-3.90513 -3.10992,-3.90513 -1.97445,0 -3.10993,1.19947 -3.10993,3.90513 0,2.74596 1.13548,3.92525 3.10993,3.92525 1.97445,0 3.10992,-1.17929 3.10992,-3.92525 m 1.39493,0 c 0,3.51761 -1.71501,5.16853 -4.50485,5.16853 -2.76626,0 -4.50483,-1.65092 -4.50483,-5.16853 0,-3.52103 1.73857,-5.15179 4.50483,-5.15179 2.78984,0 4.50485,1.63076 4.50485,5.15179"
         id="path1616"
         style="font-variation-settings:normal;vector-effect:none;fill:#de1731;fill-opacity:1;stroke-width:2.98279;stroke-linecap:butt;stroke-linejoin:miter;stroke-miterlimit:4;stroke-dasharray:none;stroke-dashoffset:0;stroke-opacity:1;-inkscape-stroke:none;stop-color:#000000;stop-opacity:1" /><path
         fill-rule="nonzero"
         fill="#de1731"
         fill-opacity="1"
         d="m 118.23357,606.87722 -3.64563,-8.6693 c -0.0196,-0.0638 -0.0641,-0.14817 -0.0641,-0.29991 0,-0.38747 0.29988,-0.68401 0.68397,-0.68401 0.38749,0 0.55933,0.23253 0.64356,0.44818 l 3.0257,7.40248 3.02567,-7.40248 c 0.0875,-0.21565 0.25945,-0.44818 0.64356,-0.44818 0.38747,0 0.68735,0.29654 0.68735,0.68401 0,0.15159 -0.0438,0.23595 -0.0641,0.29991 l -3.64901,8.6693 c -0.12812,0.27974 -0.36389,0.42793 -0.64356,0.42793 -0.27964,0 -0.51214,-0.14816 -0.64353,-0.42793"
         id="path1618"
         style="font-variation-settings:normal;vector-effect:none;fill:#de1731;fill-opacity:1;stroke-width:2.98279;stroke-linecap:butt;stroke-linejoin:miter;stroke-miterlimit:4;stroke-dasharray:none;stroke-dashoffset:0;stroke-opacity:1;-inkscape-stroke:none;stop-color:#000000;stop-opacity:1" /><path
         fill-rule="nonzero"
         fill="#de1731"
         fill-opacity="1"
         d="m 127.90855,606.62123 c 0,0.38409 -0.29987,0.68392 -0.68398,0.68392 -0.38747,0 -0.68735,-0.29983 -0.68735,-0.68392 v -8.71322 c 0,-0.38409 0.29988,-0.68738 0.68735,-0.68738 0.38411,0 0.68398,0.30329 0.68398,0.68738 z m -1.49937,-12.23084 c 0,-0.62336 0.29988,-0.85919 0.81539,-0.85919 0.51214,0 0.81539,0.23595 0.81539,0.85919 0,0.51547 -0.30325,0.8154 -0.81539,0.8154 -0.51551,0 -0.81539,-0.29993 -0.81539,-0.8154"
         id="path1620"
         style="font-variation-settings:normal;vector-effect:none;fill:#de1731;fill-opacity:1;stroke-width:2.98279;stroke-linecap:butt;stroke-linejoin:miter;stroke-miterlimit:4;stroke-dasharray:none;stroke-dashoffset:0;stroke-opacity:1;-inkscape-stroke:none;stop-color:#000000;stop-opacity:1" /><path
         fill-rule="nonzero"
         fill="#de1731"
         fill-opacity="1"
         d="m 133.65443,593.20775 v 11.58727 c 0,0.85919 0.27628,1.22311 0.85919,1.22311 0.3403,0 0.64354,0.27964 0.64354,0.64346 0,0.3639 -0.30324,0.64356 -0.64354,0.64356 -1.43873,0 -2.23389,-0.85576 -2.23389,-2.51013 v -11.58727 c 0,-0.36392 0.32346,-0.68737 0.68735,-0.68737 0.38747,0 0.68735,0.32345 0.68735,0.68737"
         id="path1622"
         style="font-variation-settings:normal;vector-effect:none;fill:#de1731;fill-opacity:1;stroke-width:2.98279;stroke-linecap:butt;stroke-linejoin:miter;stroke-miterlimit:4;stroke-dasharray:none;stroke-dashoffset:0;stroke-opacity:1;-inkscape-stroke:none;stop-color:#000000;stop-opacity:1" /><path
         fill-rule="nonzero"
         fill="#de1731"
         fill-opacity="1"
         d="m 139.98331,606.62123 c 0,0.38409 -0.29986,0.68392 -0.68397,0.68392 -0.38748,0 -0.68736,-0.29983 -0.68736,-0.68392 v -8.71322 c 0,-0.38409 0.29988,-0.68738 0.68736,-0.68738 0.38411,0 0.68397,0.30329 0.68397,0.68738 z m -1.49936,-12.23084 c 0,-0.62336 0.29987,-0.85919 0.81539,-0.85919 0.51214,0 0.81538,0.23595 0.81538,0.85919 0,0.51547 -0.30324,0.8154 -0.81538,0.8154 -0.51552,0 -0.81539,-0.29993 -0.81539,-0.8154"
         id="path1624"
         style="font-variation-settings:normal;vector-effect:none;fill:#de1731;fill-opacity:1;stroke-width:2.98279;stroke-linecap:butt;stroke-linejoin:miter;stroke-miterlimit:4;stroke-dasharray:none;stroke-dashoffset:0;stroke-opacity:1;-inkscape-stroke:none;stop-color:#000000;stop-opacity:1" /><path
         fill-rule="nonzero"
         fill="#de1731"
         fill-opacity="1"
         d="m 150.90472,600.22613 c 0,0 -0.81539,-1.88684 -2.83026,-1.88684 -1.95424,0 -3.0257,1.26355 -3.0257,3.90513 0,2.68195 1.05124,3.92525 3.0257,3.92525 1.65099,0 2.83026,-0.94337 2.83026,-2.98185 z m 0,-1.73857 v -5.27981 c 0,-0.38747 0.29988,-0.68737 0.68735,-0.68737 0.38411,0 0.68736,0.2999 0.68736,0.68737 v 9.98007 c 0,2.83031 -1.76218,4.22513 -4.20497,4.22513 -2.76962,0 -4.4004,-1.65092 -4.4004,-5.16853 0,-3.52103 1.54317,-5.15179 4.31279,-5.15179 1.37134,0 2.42258,0.70755 2.91787,1.39493"
         id="path1626"
         style="font-variation-settings:normal;vector-effect:none;fill:#de1731;fill-opacity:1;stroke-width:2.98279;stroke-linecap:butt;stroke-linejoin:miter;stroke-miterlimit:4;stroke-dasharray:none;stroke-dashoffset:0;stroke-opacity:1;-inkscape-stroke:none;stop-color:#000000;stop-opacity:1" /><path
         fill-rule="nonzero"
         fill="#de1731"
         fill-opacity="1"
         d="m 162.79236,603.42364 v -0.89958 h -3.02232 c -1.39492,0 -2.36193,0.5761 -2.36193,1.82286 0,1.11521 0.77159,1.82275 2.44616,1.82275 1.50274,0 2.93809,-0.9232 2.93809,-2.74603 m -5.02035,-3.9489 c -0.21564,0.23595 -0.3639,0.29991 -0.55595,0.29991 -0.34368,0 -0.62334,-0.27963 -0.62334,-0.61999 0,-0.15159 0.0438,-0.25946 0.10783,-0.36729 0.59974,-0.94337 1.75881,-1.69474 3.56143,-1.69474 2.48996,0 3.86129,1.45894 3.86129,3.64904 v 5.89973 c 0,0.36392 -0.29988,0.66375 -0.66377,0.66375 -0.36725,0 -0.66713,-0.29983 -0.66713,-0.66375 v -0.77156 c -0.53573,1.00738 -1.77903,1.54311 -3.06613,1.54311 -2.27431,0 -3.71304,-1.09501 -3.71304,-3.06603 0,-1.89029 1.43873,-3.02577 3.75685,-3.02577 h 3.02232 v -0.57948 c 0,-1.45891 -0.96365,-2.36194 -2.53039,-2.36194 -1.13885,0 -1.82283,0.34366 -2.48997,1.09501"
         id="path1628"
         style="font-variation-settings:normal;vector-effect:none;fill:#de1731;fill-opacity:1;stroke-width:2.98279;stroke-linecap:butt;stroke-linejoin:miter;stroke-miterlimit:4;stroke-dasharray:none;stroke-dashoffset:0;stroke-opacity:1;-inkscape-stroke:none;stop-color:#000000;stop-opacity:1" /><path
         fill-rule="nonzero"
         fill="#de1731"
         fill-opacity="1"
         d="m 174.91326,600.22613 c 0,0 -0.81537,-1.88684 -2.83363,-1.88684 -1.95423,0 -3.0257,1.26355 -3.0257,3.90513 0,2.68195 1.05125,3.92525 3.0257,3.92525 1.65099,0 2.83363,-0.94337 2.83363,-2.98185 z m 0,-1.73857 v -5.27981 c 0,-0.38747 0.29988,-0.68737 0.68736,-0.68737 0.38411,0 0.68399,0.2999 0.68399,0.68737 v 9.98007 c 0,2.83031 -1.75882,4.22513 -4.20498,4.22513 -2.76625,0 -4.39702,-1.65092 -4.39702,-5.16853 0,-3.52103 1.54316,-5.15179 4.30942,-5.15179 1.3747,0 2.42594,0.70755 2.92123,1.39493"
         id="path1630"
         style="font-variation-settings:normal;vector-effect:none;fill:#de1731;fill-opacity:1;stroke-width:2.98279;stroke-linecap:butt;stroke-linejoin:miter;stroke-miterlimit:4;stroke-dasharray:none;stroke-dashoffset:0;stroke-opacity:1;-inkscape-stroke:none;stop-color:#000000;stop-opacity:1" /></g></g></svg>
